# AST/ASF file generated using VICON BodyLanguage
# -----------------------------------------------
:version 1.10
:name VICON
:units
  mass 1.0
  length 0.45
  angle deg
:documentation
   .ast/.asf automatically generated from VICON data using
   VICON BodyBuilder and BodyLanguage model FoxedUp or BRILLIANT.MOD
:root
   order TX TY TZ RX RY RZ
   axis XYZ
   position 0 0 0  
   orientation 0 0 0 
:bonedata
  begin
     id 1 
     name lhipjoint
     direction 0.575328 -0.747301 0.332475 
     length 2.40933 
     axis 0 0 0  XYZ
  end
  begin
     id 2 
     name lfemur
     direction 0.34202 -0.939693 0  
     length 7.31453  
     axis 0 0 20  XYZ
    dof rx ry rz
    limits (-160.0 20.0)
           (-70.0 70.0)
           (-60.0 70.0)
  end
  begin
     id 3 
     name ltibia
     direction 0.34202 -0.939693 0   
     length 7.82185   
     axis 0 0 20   XYZ
    dof rx
    limits (-10.0 170.0)
  end
  begin
     id 4 
     name lfoot
     direction 0.0795993 -0.218697 0.972541   
     length 2.19173   
     axis -90 7.62852e-016 20   XYZ
    dof rx rz
    limits (-45.0 90.0)
           (-70.0 20.0)
  end
  begin
     id 5 
     name ltoes
     direction 1.53537e-011 -4.21894e-011 1   
     length 1.10023   
     axis -90 7.62852e-016 20   XYZ
    dof rx
    limits (-90.0 20.0)
  end
  begin
     id 6 
     name rhipjoint
     direction -0.513884 -0.783789 0.348708   
     length 2.29716  
     axis 0 0 0  XYZ 
  end
  begin
     id 7 
     name rfemur
     direction -0.34202 -0.939693 0   
     length 7.59573   
     axis 0 0 -20   XYZ
    dof rx ry rz
    limits (-160.0 20.0)
           (-70.0 70.0)
           (-70.0 60.0)
  end
  begin
     id 8 
     name rtibia
     direction -0.34202 -0.939693 0   
     length 7.66402   
     axis 0 0 -20   XYZ
    dof rx
    limits (-10.0 170.0)
 end
 begin
     id 9 
     name rfoot
     direction -0.137793 -0.378584 0.915253   
     length 2.27056  
     axis -90 -7.62852e-016 -20   XYZ
    dof rx rz
    limits (-45.0 90.0)
           (-20.0 70.0)
  end
  begin
     id 10 
     name rtoes
     direction -1.53493e-011 -4.22159e-011 1   
     length 1.11766   
     axis -90 -7.62852e-016 -20   XYZ
    dof rx
    limits (-90.0 20.0)
  end
  begin
     id 11 
     name lowerback
     direction -0.00732775 0.998356 -0.05685   
     length 2.16513   
     axis 0 0 0   XYZ
    dof rx ry rz
    limits (-20.0 45.0)
           (-30.0 30.0)
           (-30.0 30.0)
  end
  begin
     id 12 
     name upperback
     direction 0.0218081 0.999627 -0.0164647   
     length 2.16755   
     axis 0 0 0   XYZ
    dof rx ry rz
    limits (-20.0 45.0)
           (-30.0 30.0)
           (-30.0 30.0)
  end
  begin
     id 13 
     name thorax
     direction 0.02365 0.999661 0.0108914   
     length 2.16932   
     axis 0 0 0   XYZ
    dof rx ry rz
    limits (-20.0 45.0)
           (-30.0 30.0)
           (-30.0 30.0)
  end
  begin
     id 14 
     name lowerneck
     direction -0.0523929 0.978385 0.200044   
     length 1.63877   
     axis 0 0 0   XYZ
    dof rx ry rz
    limits (-20.0 45.0)
           (-30.0 30.0)
           (-30.0 30.0)
  end
  begin
     id 15 
     name upperneck
     direction 0.0448674 0.981321 -0.187074   
     length 1.69014   
     axis 0 0 0   XYZ
    dof rx ry rz
    limits (-20.0 45.0)
           (-30.0 30.0)
           (-30.0 30.0)
  end
  begin
     id 16
     name head
     direction 0.0199089 0.996118 -0.0857429  
     length 1.70094  
     axis 0 0 0   XYZ
    dof rx ry rz
    limits (-20.0 45.0)
           (-30.0 30.0)
           (-30.0 30.0)
  end
  begin
     id 17 
     name lclavicle
     direction 0.940366 0.30191 -0.156722  
     length 3.37521  
     axis 0 0 0   XYZ
    dof ry rz
    limits (-20.0 10.0)
           (0.0 20.0)
  end
  begin
     id 18 
     name lhumerus
     direction 1 -4.4897e-011 -1.7911e-027   
     length 5.25287   
     axis 180 -30 -90   XYZ
    dof rx ry rz
    limits (-60.0 90.0)
           (-90.0 90.0)
           (-90.0 90.0)
  end
  begin
     id 19
     name lradius
     direction 1 -4.48951e-011 1.04424e-027   
     length 3.51014   
     axis 180 -30 -90   XYZ
    dof rx
    limits (-10.0 170.0)
  end
  begin
     id 20
     name lwrist
     direction 1 -4.48997e-011 -9.5942e-028   
     length 1.75507   
     axis 8.48502e-016 90 90   XYZ
    dof ry
    limits (-180.0 0.0)
 end
  begin
     id 21 
     name lhand
     direction 1 -4.48831e-011 -1.90777e-027   
     length 0.706179   
     axis 1.22306e-015 90 90   XYZ
    dof rx rz
    limits (-90.0 90.0)
           (-45.0 45.0)
  end
  begin
     id 22 
     name lfingers
     direction 1 -4.49108e-011 -3.85244e-027   
     length 0.569339   
     axis 2.44611e-015 90 90   XYZ
    dof rx
    limits (0.0 90.0)
  end
  begin
     id 23
     name lthumb
     direction 0.707107 -6.34953e-011 0.707107   
     length 0.817461   
     axis -90 45 -1.62303e-014   XYZ
    dof rx rz
    limits (-45.0 45.0)
           (-45.0 45.0)
  end
  begin
     id 24 
     name rclavicle
     direction -0.905329 0.382405 -0.184787   
     length 3.30787  
     axis 0 0 0   XYZ 
    dof ry rz
    limits (-10.0 20.0)
           (-20.0 0.0)
  end
  begin
     id 25 
     name rhumerus
     direction -1 -4.48953e-011 -9.15316e-029  
     length 5.28721   
     axis 180 30 90   XYZ
    dof rx ry rz
    limits (-90.0 60.0)
           (-90.0 90.0)
           (-90.0 90.0)
  end
  begin
     id 26 
     name rradius
     direction -1 -4.48987e-011 9.37824e-028   
     length 3.50544   
     axis 180 30 90   XYZ
    dof rx
    limits (-10.0 170.0)
  end
  begin
     id 27 
     name rwrist
     direction -1 -4.48967e-011 -9.58414e-028   
     length 1.75272   
     axis 8.48502e-016 -90 -90   XYZ
    dof ry
    limits (-180.0 0.0)
  end
  begin
     id 28
     name rhand
     direction -1 -4.48904e-011 -1.91266e-027   
     length 0.884996   
     axis 1.22306e-015 -90 -90   XYZ
    dof rx rz
    limits (-90.0 90.0)
           (-45.0 45.0)
  end
  begin
     id 29
     name rfingers
     direction -1 -4.4909e-011 -3.85015e-027   
     length 0.713507   
     axis 2.44611e-015 -90 -90   XYZ
    dof rx
    limits (0.0 90.0)
  end
  begin
     id 30
     name rthumb
     direction -0.707107 -6.34853e-011 0.707107   
     length 1.02446   
     axis -90 -45 1.62303e-014   XYZ
    dof rx rz
    limits (-45.0 45.0)
           (-45.0 45.0)
  end
:hierarchy
  begin
    root lhipjoint rhipjoint lowerback
    lhipjoint lfemur
    lfemur ltibia
    ltibia lfoot
    lfoot ltoes
    rhipjoint rfemur
    rfemur rtibia
    rtibia rfoot
    rfoot rtoes
    lowerback upperback
    upperback thorax
    thorax lowerneck lclavicle rclavicle
    lowerneck upperneck
    upperneck head
    lclavicle lhumerus
    lhumerus lradius
    lradius lwrist
    lwrist lhand lthumb
    lhand lfingers
    rclavicle rhumerus
    rhumerus rradius
    rradius rwrist
    rwrist rhand rthumb
    rhand rfingers
  end

#!OML:ASF F:\twosubjects\two\Thursday\Session 1\justin.ASF
:FULLY-SPECIFIED
:DEGREES
48
root 7.93613 17.2791 -19.4287 1.20863 -74.4324 4.46653
lowerback -3.45816 1.07335 -2.82815
upperback -0.439719 1.49438 2.11069
thorax 1.35769 0.724606 3.82841
lowerneck -17.5555 6.5954 -1.53502
upperneck 22.1654 9.61131 -0.247756
head 9.87137 4.22912 1.4484
rclavicle -3.12589e-014 -1.27222e-014
rhumerus -30.8303 -16.2016 -79.0737
rradius 28.29
rwrist -2.87431
rhand -14.1595 11.0493
rfingers 7.12502
rthumb 11.9753 -18.5881
lclavicle -3.12589e-014 -1.27222e-014
lhumerus -29.8688 2.92159 89.3463
lradius 27.2957
lwrist -14.3602
lhand 1.72365 40.6458
lfingers 7.12502
lthumb 27.2403 68.6987
rfemur -13.1924 0.241496 18.6166
rtibia 37.914
rfoot -27.8041 -10.5575
rtoes -8.64178
lfemur -11.1521 1.54411 -17.5231
ltibia 29.1853
lfoot -19.5103 2.73379
ltoes -12.1696
49
root 7.94274 17.2711 -19.4334 0.703532 -74.312 5.0099
lowerback -3.166 0.894465 -3.06312
upperback -0.50942 1.25605 2.21463
thorax 1.13556 0.60973 4.05197
lowerneck -17.2829 6.75124 -1.65359
upperneck 21.5814 9.86962 -0.383738
head 9.61367 4.34745 1.4266
rclavicle 6.85807e-015 -2.38542e-015
rhumerus -30.8816 -15.5463 -79.175
rradius 28.3912
rwrist -3.02426
rhand -14.2537 11.1034
rfingers 7.12502
rthumb 11.8845 -18.5393
lclavicle 6.85807e-015 -2.38542e-015
lhumerus -30.0777 3.47464 89.3665
lradius 27.4317
lwrist -14.5187
lhand 1.72667 40.8126
lfingers 7.12502
lthumb 27.2432 68.8651
rfemur -13.4087 -0.0138608 18.4147
rtibia 38.2638
rfoot -28.0535 -10.1445
rtoes -7.71921
lfemur -11.3739 1.29806 -17.6597
ltibia 29.4921
lfoot -19.6628 2.61712
ltoes -10.5088
50
root 7.95271 17.2588 -19.4403 0.364388 -74.3421 5.44942
lowerback -3.00361 0.810962 -3.20827
upperback -0.517488 1.14644 2.19735
thorax 1.04391 0.556743 4.10886
lowerneck -16.9317 6.79592 -1.73031
upperneck 21.0385 9.95697 -0.526912
head 9.36263 4.38889 1.37141
rclavicle -8.84592e-015 0
rhumerus -30.8191 -15.3167 -79.3972
rradius 28.4686
rwrist -3.16174
rhand -14.2281 11.3483
rfingers 7.12502
rthumb 11.9091 -18.293
lclavicle -8.84592e-015 0
lhumerus -30.1106 3.7144 89.2647
lradius 27.5295
lwrist -14.5105
lhand 1.75177 40.5553
lfingers 7.12502
lthumb 27.2672 68.604
rfemur -13.77 -0.127204 18.2608
rtibia 38.6672
rfoot -28.2145 -9.82155
rtoes -6.89685
lfemur -11.7432 1.50908 -17.7475
ltibia 29.9736
lfoot -19.9222 2.29021
ltoes -8.75915
51
root 7.96427 17.2366 -19.4475 0.338687 -74.4962 5.48036
lowerback -2.83322 0.808402 -3.22178
upperback -0.430593 1.13987 2.20452
thorax 1.03802 0.552345 4.12147
lowerneck -17.7944 6.98407 -1.49165
upperneck 21.462 10.1558 -0.348027
head 9.66933 4.49766 1.46911
rclavicle 1.85367e-014 7.95139e-016
rhumerus -30.66 -14.8631 -79.7207
rradius 28.5598
rwrist -3.33862
rhand -14.4768 11.2146
rfingers 7.12502
rthumb 11.6694 -18.4404
lclavicle 1.85367e-014 7.95139e-016
lhumerus -30.0522 3.91815 89.1972
lradius 27.6771
lwrist -14.4385
lhand 1.67448 40.4908
lfingers 7.12502
lthumb 27.1932 68.5511
rfemur -14.1091 -0.152618 18.2709
rtibia 39.1351
rfoot -28.2973 -9.85639
rtoes -7.80847
lfemur -12.1085 1.91969 -17.7226
ltibia 30.6395
lfoot -20.2717 2.08276
ltoes -7.12084
52
root 7.97646 17.2137 -19.452 1.29539 -74.4824 4.43331
lowerback -2.57181 0.854534 -2.79404
upperback -0.382626 1.18289 2.20014
thorax 0.945601 0.576281 3.87156
lowerneck -17.9024 6.98136 -1.99969
upperneck 21.5906 10.1543 0.25589
head 9.66806 4.52395 1.75981
rclavicle -1.77912e-014 3.97569e-015
rhumerus -30.7313 -14.6059 -79.9835
rradius 28.7548
rwrist -3.43585
rhand -14.8652 10.8379
rfingers 7.12502
rthumb 11.2948 -18.838
lclavicle -1.77912e-014 3.97569e-015
lhumerus -30.0149 3.56394 89.2055
lradius 27.7666
lwrist -14.0437
lhand 1.49328 40.6841
lfingers 7.12502
lthumb 27.0199 68.7714
rfemur -14.3598 -0.148686 18.5745
rtibia 39.6999
rfoot -28.5844 -9.68687
rtoes -7.48571
lfemur -12.4983 1.87971 -17.3936
ltibia 31.4775
lfoot -20.7079 1.88148
ltoes -5.01352
53
root 7.99343 17.1873 -19.4535 1.85385 -74.2333 3.8177
lowerback -2.15808 0.970669 -2.32635
upperback -0.469791 1.32175 2.00196
thorax 0.627551 0.654179 3.39638
lowerneck -17.5645 6.79688 -1.7946
upperneck 21.1904 9.81995 0.241215
head 9.48177 4.40188 1.65333
rclavicle -5.76476e-015 -2.38542e-015
rhumerus -31.1355 -15.1149 -80.0696
rradius 29.0557
rwrist -3.6951
rhand -14.7297 11.0805
rfingers 7.12502
rthumb 11.4254 -18.5882
lclavicle -5.76476e-015 -2.38542e-015
lhumerus -30.1433 2.38204 89.2627
lradius 27.8966
lwrist -13.2188
lhand 1.66739 40.738
lfingers 7.12502
lthumb 27.1864 68.7994
rfemur -14.6715 -0.285217 18.7422
rtibia 40.3978
rfoot -28.9977 -9.69314
rtoes -6.90776
lfemur -13.0527 1.59315 -17.2148
ltibia 32.4857
lfoot -21.088 2.07283
ltoes -6.53466
54
root 8.01845 17.1478 -19.4574 1.34345 -74.0044 4.40617
lowerback -1.66776 1.06516 -2.40747
upperback -0.617847 1.44395 1.84038
thorax 0.193853 0.724859 3.26511
lowerneck -17.7224 6.64118 -1.74841
upperneck 21.4419 9.5557 0.430984
head 9.59377 4.29565 1.69084
rclavicle 1.24737e-013 1.59028e-014
rhumerus -31.4993 -15.2435 -80.1243
rradius 29.3711
rwrist -4.22875
rhand -14.6739 11.2391
rfingers 7.12502
rthumb 11.4793 -18.4266
lclavicle 1.24737e-013 1.59028e-014
lhumerus -30.4019 1.80286 89.3744
lradius 28.1652
lwrist -12.8448
lhand 1.73602 40.632
lfingers 7.12502
lthumb 27.2521 68.6831
rfemur -15.2703 -0.751157 18.58
rtibia 41.2826
rfoot -29.1925 -9.99206
rtoes -8.22957
lfemur -13.8451 1.42296 -17.3881
ltibia 33.6397
lfoot -21.4501 2.36417
ltoes -8.86749
55
root 8.04904 17.1047 -19.4675 1.1643 -73.8076 4.855
lowerback -1.40561 0.960485 -2.68442
upperback -0.668549 1.30342 1.89694
thorax -0.00232724 0.6593 3.47183
lowerneck -18.5568 6.81153 -1.87289
upperneck 21.9303 9.78815 0.76227
head 9.88985 4.41028 1.9042
rclavicle 7.50412e-015 -7.95139e-016
rhumerus -31.3753 -14.6366 -80.3397
rradius 29.6184
rwrist -4.62304
rhand -14.8326 10.9843
rfingers 7.12502
rthumb 11.3262 -18.6899
lclavicle 7.50412e-015 -7.95139e-016
lhumerus -30.5181 2.30564 89.4944
lradius 28.5328
lwrist -12.7794
lhand 1.3631 40.6724
lfingers 7.12502
lthumb 26.8953 68.7789
rfemur -16.2372 -1.33813 18.4535
rtibia 42.3827
rfoot -29.4543 -9.83909
rtoes -9.39716
lfemur -14.9681 1.28225 -17.4875
ltibia 34.9099
lfoot -21.9104 1.93505
ltoes -7.12366
56
root 8.07918 17.0605 -19.4734 1.05449 -73.5856 5.16613
lowerback -1.19435 0.836332 -2.7791
upperback -0.592257 1.1351 1.91107
thorax -0.0311356 0.574967 3.53523
lowerneck -18.6975 6.87458 -1.93067
upperneck 21.2516 9.90917 0.653917
head 9.67621 4.47209 1.87633
rclavicle -1.92821e-014 -7.95139e-016
rhumerus -31.1585 -13.9684 -80.6692
rradius 30.0834
rwrist -5.20605
rhand -14.6475 10.6539
rfingers 7.12502
rthumb 11.5047 -19.0104
lclavicle -1.92821e-014 -7.95139e-016
lhumerus -30.4547 2.25424 89.7094
lradius 28.8608
lwrist -12.1252
lhand 1.34024 41.0174
lfingers 7.12502
lthumb 26.8735 69.1273
rfemur -17.1847 -1.74236 18.2921
rtibia 43.6619
rfoot -30.1258 -9.3663
rtoes -8.73987
lfemur -16.0958 1.11366 -17.5909
ltibia 36.3074
lfoot -22.3781 1.56748
ltoes -5.13431
57
root 8.10834 17.0101 -19.4717 0.398718 -73.392 5.80013
lowerback -0.738833 0.770775 -2.76375
upperback -0.519198 1.03914 1.8109
thorax -0.201418 0.529213 3.41582
lowerneck -18.924 6.98274 -1.89797
upperneck 21.0148 10.0597 0.623384
head 9.63488 4.54768 1.88287
rclavicle 2.64384e-014 -1.59028e-014
rhumerus -31.2041 -13.4264 -80.9864
rradius 30.6617
rwrist -5.78343
rhand -14.4309 10.3337
rfingers 7.12502
rthumb 11.7136 -19.3188
lclavicle 2.64384e-014 -1.59028e-014
lhumerus -30.4962 1.66308 89.9627
lradius 29.1053
lwrist -10.9413
lhand 0.898605 41.0549
lfingers 7.12502
lthumb 26.4508 69.2291
rfemur -17.8897 -1.95378 17.9753
rtibia 45.0653
rfoot -30.893 -8.81497
rtoes -6.8619
lfemur -16.9897 0.97704 -17.8427
ltibia 37.8456
lfoot -22.7398 1.58603
ltoes -4.60854
58
root 8.1374 16.9599 -19.4736 0.21582 -73.2492 5.98424
lowerback -0.224728 0.714989 -2.70907
upperback -0.530732 0.953764 1.84104
thorax -0.494302 0.491677 3.40856
lowerneck -19.0981 6.99385 -2.40999
upperneck 20.9088 10.1432 0.978793
head 9.577 4.59229 2.09641
rclavicle -1.55549e-014 -2.38542e-015
rhumerus -31.302 -13.154 -81.0157
rradius 31.007
rwrist -5.76026
rhand -14.3846 10.3093
rfingers 7.12502
rthumb 11.7582 -19.3407
lclavicle -1.55549e-014 -2.38542e-015
lhumerus -30.708 1.45253 90.3626
lradius 29.4328
lwrist -9.92904
lhand -0.392879 41.1913
lfingers 7.12502
lthumb 25.214 69.5456
rfemur -18.7062 -2.35523 17.8618
rtibia 46.5525
rfoot -31.4115 -8.35276
rtoes -5.936
lfemur -17.9923 0.775418 -17.9298
ltibia 39.5338
lfoot -23.051 1.52114
ltoes -3.43426
59
root 8.16783 16.9044 -19.4779 0.659408 -73.1289 5.57552
lowerback 0.248492 0.753348 -2.61678
upperback -0.502818 0.995708 1.96516
thorax -0.735067 0.51606 3.47804
lowerneck -18.7134 6.81875 -2.88682
upperneck 19.8302 10.0202 0.874549
head 9.11462 4.52861 2.06491
rclavicle 1.03865e-014 3.18055e-015
rhumerus -31.3026 -12.9566 -80.9748
rradius 31.3563
rwrist -5.77768
rhand -14.6901 10.4374
rfingers 7.12502
rthumb 11.4637 -19.2292
lclavicle 1.03865e-014 3.18055e-015
lhumerus -30.8159 1.30115 90.8079
lradius 29.8973
lwrist -9.57048
lhand -0.711625 41.5995
lfingers 7.12502
lthumb 24.9086 69.9964
rfemur -19.6548 -2.86312 17.972
rtibia 48.1129
rfoot -31.8784 -8.11043
rtoes -5.86663
lfemur -19.1721 0.706772 -17.8359
ltibia 41.3607
lfoot -23.4084 1.40995
ltoes -2.74947
60
root 8.20816 16.8282 -19.4835 0.798866 -72.9114 5.32324
lowerback 0.992212 0.790958 -2.46584
upperback -0.444364 1.03376 1.93544
thorax -1.09198 0.539282 3.35169
lowerneck -19.0985 6.74794 -2.63075
upperneck 19.4838 9.89215 0.715673
head 9.08958 4.4787 1.96206
rclavicle -1.07791e-013 -1.59028e-015
rhumerus -31.3601 -12.881 -81.2381
rradius 31.8657
rwrist -6.23045
rhand -15.2431 10.6115
rfingers 7.12502
rthumb 10.9303 -19.084
lclavicle -1.07791e-013 -1.59028e-015
lhumerus -30.8635 0.715552 90.952
lradius 30.4637
lwrist -9.41112
lhand 0.231709 41.4932
lfingers 7.12502
lthumb 25.8123 69.7619
rfemur -20.4923 -3.20767 18.0161
rtibia 49.7639
rfoot -32.3965 -7.96454
rtoes -5.45837
lfemur -20.3184 0.999898 -17.8103
ltibia 43.3152
lfoot -23.7916 1.33816
ltoes -3.9047
61
root 8.25278 16.7361 -19.497 0.601401 -72.7016 5.36352
lowerback 1.91613 0.766382 -2.48621
upperback -0.40292 0.984112 1.9104
thorax -1.56405 0.52165 3.32709
lowerneck -19.1621 6.65257 -3.45039
upperneck 18.9457 9.76984 1.66816
head 8.81763 4.49366 2.37329
rclavicle 2.27608e-014 -3.18055e-015
rhumerus -31.479 -12.7544 -81.5153
rradius 32.4808
rwrist -6.84997
rhand -15.083 10.873
rfingers 7.12502
rthumb 11.0847 -18.8143
lclavicle 2.27608e-014 -3.18055e-015
lhumerus -30.9525 0.199745 91.0336
lradius 31.0892
lwrist -9.29311
lhand 1.06276 41.459
lfingers 7.12502
lthumb 26.6079 69.6095
rfemur -21.369 -3.49646 18.0261
rtibia 51.5232
rfoot -32.7382 -8.11474
rtoes -5.78191
lfemur -21.4568 1.49025 -17.8444
ltibia 45.3892
lfoot -24.3325 1.55743
ltoes -6.66834
